<svg xmlns="http://www.w3.org/2000/svg" xmlns:xlink="http://www.w3.org/1999/xlink" viewBox="0 0 232.74 103.25" width="236" height="104"><defs><clipPath id="a" transform="translate(0 -0.16)"><rect x="53.75" width="177.82" height="103.41" fill="none"/></clipPath><clipPath id="b" transform="translate(0 -0.16)"><path d="M185,103.41l1.36-.63-1.36.63m33.35-65.36.87-1.2.7.51-1.57.69m2,.11.65-1,.64.85-1.29.11M209.52,41l-.46-.28,1.7-1.43,2.75-.16,1-.8-.3.74,1.23-.23L213.62,40l-2.16.06-1.89,1M68,68.31,67.45,68,69,67.75l.81.41L68,68.31m5.44,2.63-.7-.75.7.75m0,2.06-.87-1.14L73.42,73m114.23,28.41-.85-.21-.06-1.52-.92-1.14-.84-.83-.92-2.86-.84-.49-.84-1.1.22-2.44-.5.62-.1,1.29-.42-.12-.14-.78.56-1.34.14-3.64-1.34-1L179.36,84l-1.12-1-.91.14-1.9,1.17-1.54-.21-.64-1-2.1-1.29-2.82-.15-1.4.69h-.77l-.28-2.51L165.6,82l-3-.06-1.4.27-2.39-.36L158.64,83l.63.32,2-.26,1,.14-.42.81-1,.83,1.7,1.56-.78.48L160,85.14l-.7,1.23-2.25-.06-3-2.45-1,.06v1l-1.54.15-1.83-1-2.88.69-1.41.69L145.08,84l-.42,2.48-.6,1.31-3,1.7.06-1.37-1.06.9.25,1.07-2.42,1.58L137.34,94l.06,2.77.75,2-3.82-.8-2.16-1.37-1-1.83-.76-2.62-2.16-2.24-1.46-3.43-2.5-2.33H121l-.9,1.37-.6,1.55H118l-2.81-2.62-.7-2.24-.31-1.32-5.06-4.35-5-.09-.4,1.79H95.44L83.65,73.38l-6.58.39-.49-2.32L74.17,69h-1l-.1-1-1.7-.24-2.06-1.52-3-.45V63.32L62.23,58.5l.3-2.39-1.31-.48-.4-2.79,1.46-1.27-1.65-.63-.31,1.37-1.16-.88V50.17L57,48l-.41-3.81L55,41.92l.25-1.27.55-.83-.1-4.44-1.2-4.24,1-4.29.3-2.93.61-8.34,2,.29-1-1.27H56.06l-.21-3.12-.6-.09-.4-3.17L53.8,7.09l.05-2,.9.09,1.56.93,3.51.09V7.33l-1,2.14,1.76-1.76.76-.14L60.72,4.8l-.6-.34L61,3.53,59.46,2h84.7V.16h.55l1.2,3.22h1.56l1.25.69,2.11-.25,1.5.59,2.12,1.51,1.4.83,1.26-.49,3.8.79L158,9l-4.56,4.15,1.41.49,1.61-1.27h1V13.6h2l2.71-1.27,3.21-2.88,1.51.05-2.37,2.59-.05.82,1.67-.82,1.9,2.09,2.21.14,1.3-1.06,2,.14.7-.49h.81v.83l.86.54h1.34l.36,1.17.94,1.12-2.1.05-.54.49L174.26,16l-1.15.94-1.4.29-1.42,1.22-.25-1-1,.49-2.77,4.78v.63l2.47-3.12.19.59-1,1.8-.7,3-.6,4.59v3.41l.75,1.7.45.83h1.41l.95-1,1.05-3.22.2-2.49-.91-1.66.25-1.89,1-4.06,1.26-1,.3.84L174,21l.11-1.12,1-.19L175,18.07l1.11-.2,3.45,1.81.66,1.06-.36.55.51,1.56.09.83-.7,1.21-1.26,1.56.41.89,1.06-.49.45-1.17,1.3.09.66.74.4.88-.06,1.89L183,30l-.85,2.09-.92.51v.81L180.78,35l-.54,1.08.74.48,2.21.64,2.41-.54L187.81,35l1.45-.1.46-.53,2.8-1.61,1.56-1.61-.45-1.66,3-1.07,1.56.68,2.12-.05,1.2-.88h.69l.36-.73-.45-2.19,1.25-1.46,2.39-2.42h10.61l1-1.36,1.06-.07,1.56-1.5.28-2.6,1.12-3.34,1.48-2.59H224l.57,1.15,1.33-.2.63-.82,1.47,1.7v6.41l.84.41.14,1,.56.75.84.14.08,1.09.64.95-1.84.34-2.6,1.85-1-.55-.36.68.28.89-1.46-.55-1.89,1.65-1.14-.35-.9,1.91L218.91,30l-.14,1.84.7.13-.92,1,1,1.7.58,1,1.26.13L222,35l-.28,1.23-1.12.48-1.26-.48-.72.41-1-.75-.42,1-.64.55-3.51.27-1.55.75-1.55.69-1,1.09-.48.89.62.47.14,1.17-.9,2.59-1.56,2-2.42-2v.82l1.12,2,.48,1.23-.48,1.44-.84,1.91-.85,2.45H203l.21-2,.64-1.16-.57-1.57h-.84l-.21-1.16.56-1-.7-1L203,45.2l-1.61,1.58v4l-2.67-1.3,1.2,1.37L201.7,52l.49.55-.14,2.66-.7.41.41.69,1.48.2.15,2.33-1.41,1-1.12-1.1.56,1.44,2.31.34-.07,1.36-1.12.69L201.13,62l-.62.41,1,.74-.42.76.63.27-.41,1-1.4.42-1.42.26-1.26,1.86-1.48.59-1.68,1-1.4,2.32-2.26,2.06h-2.1l.35.81-.9.75-1.34,3-.36,2.18v1.85l.56,2.81,1.69,3.19.35,2.65L190,94.22l.14,3.28-.57,2.6-.77.74-1.19.57m.07,1.19,2-1.94-.53,1.08-1.43.86" fill="none"/></clipPath><linearGradient id="d" x1="-837.11" y1="354.54" x2="-836.11" y2="354.54" gradientTransform="matrix(177.33, 0, 0, -177.33, 148498.02, 62921.5)" gradientUnits="userSpaceOnUse"><stop offset="0" stop-color="#d4e7f8"/><stop offset="0.02" stop-color="#d4e7f8"/><stop offset="0.02" stop-color="#d4e7f7"/><stop offset="0.03" stop-color="#d4e6f7"/><stop offset="0.04" stop-color="#d3e6f7"/><stop offset="0.05" stop-color="#d3e6f7"/><stop offset="0.06" stop-color="#d3e6f7"/><stop offset="0.07" stop-color="#d3e6f7"/><stop offset="0.08" stop-color="#d2e5f7"/><stop offset="0.09" stop-color="#d2e5f7"/><stop offset="0.1" stop-color="#d1e5f6"/><stop offset="0.11" stop-color="#d1e4f6"/><stop offset="0.13" stop-color="#d1e4f6"/><stop offset="0.13" stop-color="#d0e3f6"/><stop offset="0.14" stop-color="#d0e2f6"/><stop offset="0.16" stop-color="#cfe2f5"/><stop offset="0.17" stop-color="#cfe1f5"/><stop offset="0.19" stop-color="#cee1f5"/><stop offset="0.2" stop-color="#cde0f5"/><stop offset="0.21" stop-color="#cde0f4"/><stop offset="0.22" stop-color="#cddff4"/><stop offset="0.23" stop-color="#ccdff4"/><stop offset="0.25" stop-color="#cbdef4"/><stop offset="0.27" stop-color="#cbddf3"/><stop offset="0.27" stop-color="#caddf3"/><stop offset="0.28" stop-color="#cadcf3"/><stop offset="0.3" stop-color="#c9dbf3"/><stop offset="0.31" stop-color="#c8dbf2"/><stop offset="0.33" stop-color="#c8daf2"/><stop offset="0.34" stop-color="#c7d9f2"/><stop offset="0.36" stop-color="#c6d8f1"/><stop offset="0.38" stop-color="#c5d7f1"/><stop offset="0.39" stop-color="#c5d6f1"/><stop offset="0.41" stop-color="#c4d5f0"/><stop offset="0.42" stop-color="#c3d4f0"/><stop offset="0.43" stop-color="#c2d4ef"/><stop offset="0.44" stop-color="#c2d3ef"/><stop offset="0.45" stop-color="#c1d3ef"/><stop offset="0.45" stop-color="#c1d2ef"/><stop offset="0.46" stop-color="#c1d2ef"/><stop offset="0.47" stop-color="#c0d2ef"/><stop offset="0.48" stop-color="#bfd1ee"/><stop offset="0.49" stop-color="#bfd0ee"/><stop offset="0.5" stop-color="#bed0ee"/><stop offset="0.51" stop-color="#becfee"/><stop offset="0.52" stop-color="#bdceed"/><stop offset="0.53" stop-color="#bccded"/><stop offset="0.55" stop-color="#bbcdec"/><stop offset="0.56" stop-color="#bbccec"/><stop offset="0.58" stop-color="#bacbec"/><stop offset="0.59" stop-color="#bacaec"/><stop offset="0.59" stop-color="#bacaeb"/><stop offset="0.6" stop-color="#bacaeb"/><stop offset="0.61" stop-color="#bac9eb"/><stop offset="0.63" stop-color="#b9c9eb"/><stop offset="0.64" stop-color="#b9c8eb"/><stop offset="0.65" stop-color="#b9c8ea"/><stop offset="0.66" stop-color="#b9c7ea"/><stop offset="0.67" stop-color="#b9c7ea"/><stop offset="0.69" stop-color="#b8c6e9"/><stop offset="0.7" stop-color="#b8c5e9"/><stop offset="0.71" stop-color="#b8c5e9"/><stop offset="0.72" stop-color="#b8c4e9"/><stop offset="0.73" stop-color="#b8c4e8"/><stop offset="0.74" stop-color="#b7c3e8"/><stop offset="0.75" stop-color="#b7c2e8"/><stop offset="0.77" stop-color="#b7c2e8"/><stop offset="0.78" stop-color="#b7c1e7"/><stop offset="0.79" stop-color="#b7c1e7"/><stop offset="0.8" stop-color="#b6c0e7"/><stop offset="0.81" stop-color="#b6c0e6"/><stop offset="0.83" stop-color="#b6bfe6"/><stop offset="0.84" stop-color="#b6bee6"/><stop offset="0.85" stop-color="#b6bee6"/><stop offset="0.86" stop-color="#b5bee5"/><stop offset="0.87" stop-color="#b5bde5"/><stop offset="0.88" stop-color="#b5bde5"/><stop offset="0.89" stop-color="#b5bce5"/><stop offset="0.91" stop-color="#b5bce5"/><stop offset="0.91" stop-color="#b5bbe4"/><stop offset="0.92" stop-color="#b4bbe4"/><stop offset="0.93" stop-color="#b4bae4"/><stop offset="0.94" stop-color="#b4bae4"/><stop offset="0.95" stop-color="#b4bae4"/><stop offset="0.95" stop-color="#b4b9e4"/><stop offset="0.97" stop-color="#b4b9e3"/><stop offset="0.98" stop-color="#b4b8e3"/><stop offset="0.98" stop-color="#b3b8e3"/><stop offset="0.99" stop-color="#b3b8e3"/><stop offset="1" stop-color="#b3b7e2"/></linearGradient></defs><g clip-path="url(#a)"><g clip-path="url(#b)"><g clip-path="url(#b)"><path d="M53.8.16V103.41H231.14V.16Z" transform="translate(0 -0.16)" fill="url(#d)"/></g></g></g><path d="M22.74,83.78C7.92,73-1.52,59.15.64,49.89c1.53-6.59,8.59-9.38,18.28-8.34-9.09-.63-15.62,2.08-17,8.09C.13,57.27,7.12,68.15,18.74,77.46,13,73.94,6.83,67.64,5.17,64.52,6.82,68.27,15.63,78.14,22.74,83.78ZM19.53,70.7C10.12,63.66,4.32,54.5,5.89,48c.94-3.88,4.36-6.09,9.19-6.54-4.62.9-7.81,3.28-8.54,7C5.24,55.17,12.33,64,23,69.72c-5.14-2.1-10.19-5.69-11.93-8,1.18,1.92,4.46,5.49,8.43,9" transform="translate(0 -0.16)" fill="#e6a60f" fill-rule="evenodd"/><path d="M22.74,83.78l.19-.26A72.6,72.6,0,0,1,6.78,67.79C2.87,62.4.66,57.1.66,52.66A11.89,11.89,0,0,1,1,50a9.35,9.35,0,0,1,4.69-6.2,19.18,19.18,0,0,1,9.49-2.1,33.67,33.67,0,0,1,3.75.21v-.66c-.87-.06-1.72-.09-2.54-.09a20.58,20.58,0,0,0-9.85,2.09,9.56,9.56,0,0,0-5,6.34,11.52,11.52,0,0,0-.28,2.55C1.3,55.91,3,60.21,6,64.62a62.23,62.23,0,0,0,12.52,13.1l.21-.26.18-.28a49.94,49.94,0,0,1-8.26-6.58,30.44,30.44,0,0,1-5.19-6.24l-.6.3a22.05,22.05,0,0,0,2.48,3.86A100,100,0,0,0,22.53,84.05l.21-.27.19-.26-.19.26.2-.25A98.23,98.23,0,0,1,12.15,73.22C10.51,71.4,9,69.65,7.88,68.12a21.54,21.54,0,0,1-2.4-3.73l-.31.13-.29.16a31.39,31.39,0,0,0,5.32,6.4,49.78,49.78,0,0,0,8.37,6.66L19,77.2a61.38,61.38,0,0,1-12.39-13C3.6,59.91,2,55.71,2,52.11a10.77,10.77,0,0,1,.27-2.4A8.89,8.89,0,0,1,6.88,43.8a20,20,0,0,1,9.53-2q1.2,0,2.49.09l.06-.66A37.47,37.47,0,0,0,15.14,41a19.8,19.8,0,0,0-9.82,2.18,10.09,10.09,0,0,0-5,6.63A12.39,12.39,0,0,0,0,52.66c0,4.66,2.29,10.06,6.24,15.52a73.7,73.7,0,0,0,16.3,15.87l.4-.52Zm-3-13.35a44,44,0,0,1-10-10.16c-2.4-3.51-3.75-7-3.75-10a9,9,0,0,1,.25-2.13,7.3,7.3,0,0,1,3-4.36,12.29,12.29,0,0,1,5.9-1.93v-.33L15,41.16a13.55,13.55,0,0,0-5.88,2.52A7.85,7.85,0,0,0,6.2,48.42,8.76,8.76,0,0,0,6,50.11c0,3.34,1.74,7,4.7,10.44A42.62,42.62,0,0,0,22.88,70l.15-.29.13-.31A39.34,39.34,0,0,1,16,65.52a20.53,20.53,0,0,1-4.62-4l-.54.37a27.38,27.38,0,0,0,3.2,4c1.48,1.58,3.29,3.37,5.28,5.14l.45-.49a72,72,0,0,1-5.24-5.1,28.92,28.92,0,0,1-3.13-3.85l-.28.17-.27.2a21,21,0,0,0,4.78,4.19,38.9,38.9,0,0,0,7.3,4l.28-.59a42.14,42.14,0,0,1-11.92-9.31c-2.9-3.39-4.55-6.91-4.55-10a8.17,8.17,0,0,1,.15-1.56,7.27,7.27,0,0,1,2.69-4.36A12.86,12.86,0,0,1,15.17,42l-.1-.65a13.06,13.06,0,0,0-6.21,2A8,8,0,0,0,5.56,48a10.29,10.29,0,0,0-.26,2.28c0,3.22,1.41,6.82,3.86,10.4A44.87,44.87,0,0,0,19.33,71l.39-.53" transform="translate(0 -0.16)" fill="#e6a60f"/><path d="M39.79,78.54s-2.8-6.14-3.6-7S32.36,70.9,29,71.1s-3.76.66-4.35,2.44A2.68,2.68,0,0,1,26,71.2a27.78,27.78,0,0,1,6.71-1.12c3.91-.15,4.17-.28,6.67,3.94s1.5,3.64,3,3.64,6-.08,8.39-.13,3.43-.09,4.53-.17,1.71.08.52-1.06a56.79,56.79,0,0,0-5.4-5,1.92,1.92,0,0,0-.31-.18c-2.92-.48-8.17-.36-12.3-.39,3.4-.13,6.9-.21,10.8-.09h-.19c-1.33-.31-4.37-.48-10.53-.78a94,94,0,0,1,11,.56c2.58.44,4.44,2.82,5.85,4.17A33.3,33.3,0,0,1,57.1,77c.67.75,2.59,1.9,3.83,3.22s1.73,2,1.5,2.32-2.09,2.2-1.93,3,2.29-.18,2.67-.66c.14-.18.25-.2.32.12s.21.65-2,1.26a40.82,40.82,0,0,1-10.31,1.48,42.92,42.92,0,0,1-7.68-.51c-.65-.19-1-.17-1.18-.48S41,84.22,39.67,84.49s-1.49,1.14-1.54,2.17a7.43,7.43,0,0,0,.3,2.77c.26.56.44,1-.13.71L27.45,84.79c-.11-.06-.32,0-.68-.78s-1-5-2.11-3.4c0-.71.91-1.33,1.27-.34s.73,3.35,1.35,3.77,10.06,4.74,10.06,4.74.56.3.42-.79-.27-3.91,1.4-4.54a2.35,2.35,0,0,1,3.25,1.77c.36,1.37,1.06,1.76,2,1.39s1,0,2.2.21a15.7,15.7,0,0,0,3.68.32c.65-.14,1.76-.4.37-1.86-1.21-1.28-3-1.66-5-2-1.21-.22-2-.08-2,.48s-.23.14-1.16-.37-5.39-3.32-7.47-4-5.78-2-5.78-2,4.49,1.34,6.34,1.85,3.71,1,4.12.28a.91.91,0,0,0,.06-.9Zm21.77,3.3c-.38-.76-3.77-4.08-4.9-3.93a116.53,116.53,0,0,1-13.73.48c-.57,0-1.38.12-1.5.61s-1,1.68-1.39,1.68c-.23,0-.14.28.23.5A30.34,30.34,0,0,0,43,83.09a4.1,4.1,0,0,1,2.55-.62,14.51,14.51,0,0,1,4.38,1.27c.7.42,2.42,1.76,2.27,2.75-.07.41.64.46,1.45.43a37,37,0,0,0,5.84-.83c.39-.14.27-.08.36-.51a4.4,4.4,0,0,1,.29-1,6,6,0,0,1,1.21-1.7C61.81,82.4,62,82.32,61.56,81.84Zm-11.48,5a17.6,17.6,0,0,1-4.15-.52,3.73,3.73,0,0,1-1.75-2c-.1-.37-.08-.7.62-.68a11.17,11.17,0,0,1,3.57.71,7,7,0,0,1,1.79.89c.62.47,1.1,1.61-.08,1.65Zm-3.2-.7a.52.52,0,0,0,.4-.08l2,.24,1.07.13a.64.64,0,0,1-.36.08,15.49,15.49,0,0,1-3.11-.32Zm.5-.22a.48.48,0,0,0,0-.29l1.71.3,1.33.23a.31.31,0,0,1,0,.19l-1.2-.17L47.38,86Zm0-.44a1.54,1.54,0,0,0-.17-.34l1.73.4,1.4.31a1.47,1.47,0,0,1,.1.22l-1.37-.27ZM47.07,85a1.42,1.42,0,0,0-.24-.25l-.21-.19,2.13.6,1.22.35.1.07a1.8,1.8,0,0,1,.19.2l-1.38-.33Zm-.79-.7a1.6,1.6,0,0,0-.62-.29,18.19,18.19,0,0,1,4,1.31Zm-.8-.14c-.3-.06-.49,0-.55.24a.92.92,0,0,0,.17.68,2.7,2.7,0,0,0,.61.65,2.22,2.22,0,0,0,.69.34.58.58,0,0,0,.51-.07.44.44,0,0,0,.09-.5,2.1,2.1,0,0,0-.57-.81,1.9,1.9,0,0,0-1-.52Zm-.21.23c-.09,0-.15,0-.17.07a.28.28,0,0,0,0,.22,1.8,1.8,0,0,0,.19.2.62.62,0,0,0,.22.1.11.11,0,1,0,.16-.16.62.62,0,0,0-.17-.25.67.67,0,0,0-.3-.16Zm18.25,1.83A29.61,29.61,0,0,1,56.34,88a55.27,55.27,0,0,1-11.43.17c-1.74-.29-2.2-.8-1.79.66s.25,3.51,2.89,3.55a49.2,49.2,0,0,0,9.76-1,42.74,42.74,0,0,0,6.47-1.78c.7-.41,2-3.33,1.28-3.39ZM61,85.59a4,4,0,0,0,2-.82.48.48,0,0,0,.18-.52,5.6,5.6,0,0,0-.47-1.54c-.1-.17-.24-.06-.36.09-.53.67-1,1.3-1.49,2S60.82,85.61,61,85.59Zm1.42-2.51a.64.64,0,0,1,.1-.24c-.12.18-.27.35-.41.52l-.22.27c-.14.15-.27.31-.38.45a2.83,2.83,0,0,0-.32.45l.33-.38.45-.52c.08-.1.17-.2.24-.3Zm-.17.54v-.21l.06-.16-.26.31-.23.27-.37.4c-.16.18-.29.33-.41.45v.06l-.08.15.49-.47.33-.34.45-.46Zm0,.41a1.22,1.22,0,0,1,0-.27c-.16.17-.31.31-.44.44l-.33.32c-.2.19-.37.33-.5.46v.15c.14-.1.3-.24.51-.41l.35-.28.47-.41Zm.2.35a.66.66,0,0,1-.17-.23l-.5.4-.37.28c-.2.16-.37.28-.5.37a.33.33,0,0,0,0,.14l.48-.28.43-.27.29-.19Zm.64.08a.61.61,0,0,1-.46,0l-.38.21-.34.19-.55.3-.44.22h.13l.38-.11.45-.17.3-.14.32-.17.32-.19.27-.2Zm-.49-1.39a1.29,1.29,0,0,0-.17.69c0,.44.27.7.56.61.12,0,.1-.17.07-.32a6.63,6.63,0,0,0-.25-.9c0-.15-.08-.26-.19-.08Zm.09.1a.27.27,0,0,0-.1.18c0,.1,0,.17.09.17s.1-.08.1-.17,0-.18-.07-.18Zm.12,3.9a27.53,27.53,0,0,1-4.35,1.3,35.49,35.49,0,0,1-4.23.56c-1.51.13-3.07.18-4.68.2s-3.31,0-5.06-.08c-.08,0-.13,0-.12.08v.16a.26.26,0,0,0,.16.09c1.72,0,3.38.06,5,0s3.15-.1,4.66-.23a40,40,0,0,0,4.22-.59,28.5,28.5,0,0,0,4.34-1.3.23.23,0,0,0,.12-.1v-.11h-.1Zm-.09.4a29.89,29.89,0,0,1-4.33,1.29c-1.39.27-2.79.48-4.2.61s-3,.22-4.63.27-3.24,0-4.94,0c-.06,0-.11,0-.1.07l.06.16a.17.17,0,0,0,.16.08h4.84c1.53,0,3.05-.13,4.57-.31s2.81-.36,4.2-.64a28,28,0,0,0,4.3-1.28.27.27,0,0,0,.12-.09v-.11h-.09Zm-.14.4a32.3,32.3,0,0,1-4.28,1.27c-1.37.29-2.76.5-4.17.66s-3,.27-4.53.34-3.13.07-4.76.06c-.07,0-.11,0-.09.08l.08.15a.17.17,0,0,0,.16.08c1.58,0,3.13,0,4.64-.1s3-.2,4.47-.38,2.77-.38,4.13-.68a31.54,31.54,0,0,0,4.26-1.26.19.19,0,0,0,.13-.1v-.11Zm-.17.39a34.28,34.28,0,0,1-4.23,1.26c-1.36.3-2.73.52-4.11.7s-2.9.31-4.4.41-3,.12-4.55.12c-.06,0-.09,0-.07.08l.09.15.16.07a40.72,40.72,0,0,0,4.42-.16c1.42-.16,2.9-.25,4.32-.44s2.72-.42,4.06-.72a36.16,36.16,0,0,0,4.2-1.25l.13-.1.06-.1ZM42.6,88.19c.09.52.28,1.6.43,2.18a4.84,4.84,0,0,0,1,2c.39.39.61.5.32,1.15a1.72,1.72,0,0,1-1.86,1.2A3.42,3.42,0,0,1,39.38,93a7.5,7.5,0,0,1-.73-2c.51,1.44,1.46,2.55,2.38,2.64,1.14.12,1.8-1.34,1.47-3.27s-1.5-3.67-2.66-3.8a1.1,1.1,0,0,0-.8.23,1.61,1.61,0,0,1,1.49-1.14c.22,0,.76,0,.85.35a4.09,4.09,0,0,0,1,1.64.84.84,0,0,1,.24.54Zm16.31,3.45c-.35.06-1.55.2-1.8-.24,1.32-.31,2.58-.62,3.53-.9a2.93,2.93,0,0,1-1.71,1.14ZM26,82.16c.1.58.4,2.34.85,2.66s1,.43,1,.69,0,1.17-.72,1.25a2.2,2.2,0,0,1-1.66-.25,2.76,2.76,0,0,1-.58-1.4c.19.54.44.93.71,1,.45.15.75-.66.66-1.82s-.52-2.22-1-2.37c-.18-.07-.33,0-.45.24a1.46,1.46,0,0,1,.43-.82c.48-.36.7.45.76.8" transform="translate(0 -0.16)" fill="#fff" fill-rule="evenodd"/><path d="M204,12.16a2.34,2.34,0,1,0,2.34,2.34h0A2.33,2.33,0,0,0,204,12.16Zm0,5.16a2.83,2.83,0,1,1,2.83-2.83A2.83,2.83,0,0,1,204,17.32h0" transform="translate(0 -0.16)" fill="#fff" stroke="#000" stroke-miterlimit="2.62" stroke-opacity="0.94" stroke-width="0.65"/><path d="M203.47,14.34h.46c.48,0,.79-.22.79-.55s-.33-.53-.81-.53a1.62,1.62,0,0,0-.44,0ZM203,13a6.22,6.22,0,0,1,.86-.06,1.6,1.6,0,0,1,1,.24.64.64,0,0,1,.28.54.79.79,0,0,1-.66.73h0A.74.74,0,0,1,205,15a5.66,5.66,0,0,0,.27.79h-.47a3.29,3.29,0,0,1-.23-.69.64.64,0,0,0-.69-.56h-.43v1.25H203V13" transform="translate(0 -0.16)" fill="#fff" stroke="#000" stroke-miterlimit="2.62" stroke-opacity="0.94" stroke-width="0.65"/><path d="M49.82,45.51H41.66L32.71,29.78a62.45,62.45,0,0,1-3.46-7.36A27.49,27.49,0,0,1,30,28.27V45.51H21.9V9.9h9.47L39,23a52.59,52.59,0,0,1,3.44,6.83,56.22,56.22,0,0,1-.76-9.34V9.9h8.16Z" transform="translate(0 -0.16)" fill="#ffbe2e" stroke="#000" stroke-width="0.6"/><path d="M91,9.9V45.51H81.67V20.05l-6,25.46H69.26L63,20.05V45.51H55.48V9.9H68.57L73.3,28.82,77.82,9.9Z" transform="translate(0 -0.16)" fill="#ffbe2e" stroke="#000" stroke-width="0.6"/><path d="M125,9.9,114.82,45.51H104.61L94,9.9h10.57l5.14,19.41c.36,1.15.67,2.28.94,3.39l6-22.8Z" transform="translate(0 -0.16)" fill="#ffbe2e" stroke="#000" stroke-width="0.6"/><path d="M142.9,18.43V45.51h-9.49V18.43h-6.77V9.9h23v8.53Z" transform="translate(0 -0.16)" fill="#ffbe2e" stroke="#000" stroke-width="0.6"/><path d="M162.61,9.9V45.51h-10V9.9Z" transform="translate(0 -0.16)" fill="#ffbe2e" stroke="#000" stroke-width="0.6"/><path d="M164.91,35.21l9.3-1.83c.79,2.87,2.79,4.31,6,4.3q3.78,0,3.78-2.19a2,2,0,0,0-.88-1.77A8.66,8.66,0,0,0,180,32.57q-8.59-1.8-11-4.69a10.23,10.23,0,0,1-2.44-6.81,11.14,11.14,0,0,1,3.49-8.38q3.52-3.33,10.1-3.33,10,0,13.17,8.73L185,20.83a5.06,5.06,0,0,0-5.23-3.57c-2.19,0-3.28.74-3.28,2.22a1.83,1.83,0,0,0,.74,1.54,8.61,8.61,0,0,0,2.87,1,54.69,54.69,0,0,1,8.33,2.4A9.16,9.16,0,0,1,192.56,28a10.53,10.53,0,0,1,1.65,6,10.85,10.85,0,0,1-4,8.77q-4,3.34-10.55,3.34Q167.72,46.07,164.91,35.21Z" transform="translate(0 -0.16)" fill="#ffbe2e" stroke="#000" stroke-width="0.6"/><path d="M49.24,51.15v2.12h3.12V51.15Zm-26.32.29V60.6h2.66V56.16a5.48,5.48,0,0,0-.25-1.5,15,15,0,0,0,1.13,1.89l2.93,4.05h2.68V51.44H29.39v2.71a12.07,12.07,0,0,0,.25,2.4,11.21,11.21,0,0,0-1.13-1.76L26,51.44Zm23.69.07h-3v2.22H42.4v1.74h1.19v3a2,2,0,0,0,.67,1.69,3.44,3.44,0,0,0,2.12.53,10.09,10.09,0,0,0,1.82-.16v-1.9a4.42,4.42,0,0,1-.89.11,1.27,1.27,0,0,1-.47-.09c-.15-.07-.23-.28-.23-.62V55.51H48.2V53.77H46.61Zm-8.78,2.12c-2.37,0-3.76.72-4.17,2.14l2.86.23c.08-.49.48-.74,1.2-.74a1.54,1.54,0,0,1,.7.14.65.65,0,0,1,.24.6v.16a9.79,9.79,0,0,0-4.07.8,2,2,0,0,0-1.14,1.75,1.84,1.84,0,0,0,.69,1.41,3.11,3.11,0,0,0,2.12.62,3,3,0,0,0,2.56-1.09,4.2,4.2,0,0,0,.11,1h3a3.34,3.34,0,0,1-.24-1.33V56.55a4.47,4.47,0,0,0-.17-1.5,1.72,1.72,0,0,0-.62-.74,3.31,3.31,0,0,0-1.28-.51A9,9,0,0,0,37.83,53.63Zm20.14,0a4.8,4.8,0,0,0-3.18,1,3.18,3.18,0,0,0-1.21,2.56,3.3,3.3,0,0,0,1.17,2.48,4.5,4.5,0,0,0,3.15,1,4.75,4.75,0,0,0,3.21-1,3.22,3.22,0,0,0,1.22-2.56,3.17,3.17,0,0,0-1.2-2.52,4.72,4.72,0,0,0-3.13-1Zm10.76,0a2.46,2.46,0,0,0-2.3,1.11v-1h-2.9V60.6h3.13V56.5c0-.68.29-1,.85-1a.71.71,0,0,1,.48.15c.13.09.2.32.2.67v4.3h3.13V56.23a3.38,3.38,0,0,0-.26-1.57,1.93,1.93,0,0,0-.86-.74A3.51,3.51,0,0,0,68.73,53.63Zm8.19,0c-2.37,0-3.75.72-4.16,2.14l2.85.23c.08-.49.49-.74,1.21-.74a1.54,1.54,0,0,1,.7.14.65.65,0,0,1,.24.6v.16a9.87,9.87,0,0,0-4.08.8,2,2,0,0,0-1.14,1.75,1.85,1.85,0,0,0,.7,1.41,3.71,3.71,0,0,0,4.68-.47,3.74,3.74,0,0,0,.11,1h3a3.34,3.34,0,0,1-.24-1.33V56.55a4.46,4.46,0,0,0-.16-1.5,1.88,1.88,0,0,0-.63-.74,3.31,3.31,0,0,0-1.28-.51A9.07,9.07,0,0,0,76.92,53.63Zm-27.68.14V60.6h3.12V53.77ZM58,55.31a.86.86,0,0,1,.82.42A3.28,3.28,0,0,1,59,57.12a5.55,5.55,0,0,1-.17,1.35.8.8,0,0,1-.88.65.89.89,0,0,1-.78-.38,3.11,3.11,0,0,1-.26-1.56,3.05,3.05,0,0,1,.25-1.43A.85.85,0,0,1,58,55.31Zm-19.29,2.1v.33c0,.58-.11.95-.35,1.12a1.38,1.38,0,0,1-.85.26c-.53,0-.79-.21-.79-.62,0-.61.61-1,1.94-1.09Zm39.1,0v.33c0,.58-.12.95-.35,1.12a1.39,1.39,0,0,1-.86.26c-.53,0-.79-.21-.79-.62C75.81,57.89,76.43,57.5,77.81,57.41Z" transform="translate(0 -0.16)" fill="#fff" stroke="#002d3f" stroke-linejoin="round" stroke-width="2.76"/><path d="M171.56,51.15v2.12h-3.13V51.15Zm0,2.62V60.6h-3.13V53.77Z" transform="translate(0 -0.16)" fill="#fff" stroke="#002d3f" stroke-miterlimit="2.62" stroke-width="2.76"/><path d="M207.3,51.15v2.12h3.13V51.15Zm8.1.36h-3l-.05,2.22h-1.19v1.74h1.19v3a2,2,0,0,0,.68,1.69,3.44,3.44,0,0,0,2.12.53,10.09,10.09,0,0,0,1.82-.16v-1.9a4.42,4.42,0,0,1-.89.11,1.27,1.27,0,0,1-.47-.09c-.15-.07-.23-.28-.23-.62V55.51H217V53.77h-1.6Zm-8.1,2.26V60.6h3.13V53.77Z" transform="translate(0 -0.16)" fill="#fff" stroke="#002d3f" stroke-miterlimit="2.62" stroke-width="2.76"/><path d="M85.45,51.44V60.6H82.37V51.44Z" transform="translate(0 -0.16)" fill="#fff" stroke="#002d3f" stroke-miterlimit="2.62" stroke-width="2.76"/><path d="M102.86,51.44V60.6h-3V54.05l-2,6.55H95.75l-2.06-6.55V60.6H91.23V51.44h4.29l1.55,4.86,1.48-4.86Z" transform="translate(0 -0.16)" fill="#fff" stroke="#002d3f" stroke-miterlimit="2.62" stroke-width="2.76"/><path d="M117.49,51.51h-3v2.22H113.3v1.74h1.19v3a2,2,0,0,0,.67,1.69,3.47,3.47,0,0,0,2.13.53,10.09,10.09,0,0,0,1.82-.16v-1.9a4.61,4.61,0,0,1-.9.11,1.27,1.27,0,0,1-.47-.09c-.15-.07-.23-.28-.23-.62V55.51h1.6V53.77h-1.6Zm-8.89,2.12a4.8,4.8,0,0,0-3.18,1,3.23,3.23,0,0,0-1.21,2.56,3.3,3.3,0,0,0,1.17,2.48,4.5,4.5,0,0,0,3.15,1,4.75,4.75,0,0,0,3.21-1A3.21,3.21,0,0,0,113,57.16a3.17,3.17,0,0,0-1.2-2.52A4.8,4.8,0,0,0,108.6,53.63Zm15.49,0a4.8,4.8,0,0,0-3.18,1,3.18,3.18,0,0,0-1.21,2.56,3.29,3.29,0,0,0,1.16,2.48A4.55,4.55,0,0,0,124,60.74a4.82,4.82,0,0,0,3.21-1,3.28,3.28,0,0,0,.46-4.62,2.86,2.86,0,0,0-.46-.46A4.75,4.75,0,0,0,124.09,53.63Zm-15.51,1.68a.84.84,0,0,1,.82.42,3.16,3.16,0,0,1,.23,1.39,5.55,5.55,0,0,1-.17,1.35.8.8,0,0,1-.88.65.89.89,0,0,1-.78-.38,3.11,3.11,0,0,1-.26-1.56,3.05,3.05,0,0,1,.25-1.43A.84.84,0,0,1,108.58,55.31Zm15.49,0a.86.86,0,0,1,.82.42,3.15,3.15,0,0,1,.22,1.39,5.6,5.6,0,0,1-.16,1.35.83.83,0,0,1-.89.65.87.87,0,0,1-.77-.38,4.54,4.54,0,0,1,0-3A.84.84,0,0,1,124.07,55.31Z" transform="translate(0 -0.16)" fill="#fff" stroke="#002d3f" stroke-miterlimit="2.62" stroke-width="2.76"/><path d="M132.64,60.6h-3V53.77h2.6v1.41a2,2,0,0,1,2.08-1.53h.45V56a2.25,2.25,0,0,0-.58-.07,1.36,1.36,0,0,0-1.55,1.14,1.29,1.29,0,0,0,0,.34Z" transform="translate(0 -0.16)" fill="#fff" stroke="#002d3f" stroke-miterlimit="2.62" stroke-width="2.76"/><path d="M149.14,51.44l-3.32,9.16h-3.35L139,51.44h3.46l1.69,5c.11.3.21.59.3.88l2-5.87Z" transform="translate(0 -0.16)" fill="#fff" stroke="#002d3f" stroke-miterlimit="2.62" stroke-width="2.76"/><path d="M154.78,58.15l2.91.17A3,3,0,0,1,156.37,60a5.17,5.17,0,0,1-2.87.7,4.89,4.89,0,0,1-3.21-1,3.08,3.08,0,0,1-1.2-2.48,3.33,3.33,0,0,1,1.18-2.58,4.54,4.54,0,0,1,3.16-1.06,4.6,4.6,0,0,1,3.09,1,3.34,3.34,0,0,1,1.18,2.7v.39h-5.33a1.54,1.54,0,0,0,.26,1,1.19,1.19,0,0,0,1,.31A1.06,1.06,0,0,0,154.78,58.15Zm-.21-1.77a1.12,1.12,0,0,0-.33-.93,1.21,1.21,0,0,0-.78-.24q-1.11,0-1.11,1.17Z" transform="translate(0 -0.16)" fill="#fff" stroke="#002d3f" stroke-miterlimit="2.62" stroke-width="2.76"/><path d="M166.76,60.6h-3.12V56.49a1.46,1.46,0,0,0-.15-.77.61.61,0,0,0-.55-.21,1,1,0,0,0-.57.16.57.57,0,0,0-.27.34,4.45,4.45,0,0,0,0,.73V60.6H159V51.44h3.13v3.14a2.82,2.82,0,0,1,2.21-.95,3.15,3.15,0,0,1,1.21.21,2.13,2.13,0,0,1,.8.52,1.77,1.77,0,0,1,.38.63,4.18,4.18,0,0,1,.1,1.17Z" transform="translate(0 -0.16)" fill="#fff" stroke="#002d3f" stroke-miterlimit="2.62" stroke-width="2.76"/><path d="M181.6,51.44V60.6h3.08V51.44Zm-4.75,2.19a4.29,4.29,0,0,0-2.95,1,3.32,3.32,0,0,0-1.13,2.59,3.2,3.2,0,0,0,1.14,2.52,4.36,4.36,0,0,0,3,1,4.18,4.18,0,0,0,2.61-.75,3,3,0,0,0,1.18-2l-2.7-.14c-.1.68-.44,1-1,1a.84.84,0,0,1-.8-.4,2.52,2.52,0,0,1-.23-1.24,3,3,0,0,1,.23-1.37.78.78,0,0,1,.73-.39c.53,0,.87.36,1,1.08l2.74-.19a2.83,2.83,0,0,0-1.16-2A4.19,4.19,0,0,0,176.85,53.63Zm13.4,0a4.54,4.54,0,0,0-3.16,1.06,3.33,3.33,0,0,0-1.18,2.58,3.08,3.08,0,0,0,1.2,2.48,4.89,4.89,0,0,0,3.21,1,5.17,5.17,0,0,0,2.87-.7,3,3,0,0,0,1.32-1.72l-2.91-.17a1.05,1.05,0,0,1-1.2.84,1.19,1.19,0,0,1-1-.31,1.69,1.69,0,0,1-.26-1h5.33V57.3a3.34,3.34,0,0,0-1.18-2.7,4.6,4.6,0,0,0-3.09-1Zm0,1.58a1.25,1.25,0,0,1,.79.24,1.15,1.15,0,0,1,.32.93h-2.22a1,1,0,0,1,1.14-1.17Z" transform="translate(0 -0.16)" fill="#fff" stroke="#002d3f" stroke-miterlimit="2.62" stroke-width="2.76"/><path d="M204.26,53.63v7h-3.12v-7h-2.21V51.44h7.54v2.19Z" transform="translate(0 -0.16)" fill="#fff" stroke="#002d3f" stroke-miterlimit="2.62" stroke-width="2.76"/><path d="M221.11,51.44V60.6H218V51.44Z" transform="translate(0 -0.16)" fill="#fff" stroke="#002d3f" stroke-miterlimit="2.62" stroke-width="2.76"/><path d="M228,58.15l2.91.17A3,3,0,0,1,229.62,60a5.17,5.17,0,0,1-2.87.7,4.89,4.89,0,0,1-3.21-1,3.08,3.08,0,0,1-1.2-2.48,3.33,3.33,0,0,1,1.18-2.58,4.54,4.54,0,0,1,3.16-1.06,4.6,4.6,0,0,1,3.09,1,3.34,3.34,0,0,1,1.18,2.7v.39h-5.33a1.54,1.54,0,0,0,.26,1,1.19,1.19,0,0,0,1,.31,1.05,1.05,0,0,0,1.2-.84Zm-.21-1.77a1.12,1.12,0,0,0-.33-.93,1.21,1.21,0,0,0-.78-.24q-1.11,0-1.11,1.17Z" transform="translate(0 -0.16)" fill="#fff" stroke="#002d3f" stroke-miterlimit="2.62" stroke-width="2.76"/><path d="M87.3,64.83V74H84V64.83Z" transform="translate(0 -0.16)" fill="#fff" stroke="#002d3f" stroke-miterlimit="2.62" stroke-width="2.76"/><path d="M149.53,64.54v2.12h3.12V64.54ZM158.26,67a4.8,4.8,0,0,0-3.18,1,3.16,3.16,0,0,0-1.21,2.55A3.31,3.31,0,0,0,155,73.08a4.53,4.53,0,0,0,3.16,1,4.82,4.82,0,0,0,3.21-1,3.18,3.18,0,0,0,1.21-2.56A3.1,3.1,0,0,0,161.42,68,4.74,4.74,0,0,0,158.26,67Zm-8.73.14V74h3.12V67.16Zm8.71,1.54a.86.86,0,0,1,.82.42,3.11,3.11,0,0,1,.22,1.38,5.68,5.68,0,0,1-.16,1.36.83.83,0,0,1-.89.65.87.87,0,0,1-.77-.38,4.54,4.54,0,0,1,0-3A.86.86,0,0,1,158.24,68.68Z" transform="translate(0 -0.16)" fill="#fff" stroke="#002d3f" stroke-miterlimit="2.62" stroke-width="2.76"/><path d="M101.91,64.36a4.85,4.85,0,0,0-1.56.2,2.2,2.2,0,0,0-.92.57,1.62,1.62,0,0,0-.43.78,6.52,6.52,0,0,0-.09,1.25H97.72V68.9h1.19V74h3V68.9h2V67.16h-2v-.24c0-.33.11-.54.31-.62a1.7,1.7,0,0,1,.67-.13,10.56,10.56,0,0,1,1.12.09V64.5A14.82,14.82,0,0,0,101.91,64.36ZM94.25,67A2.45,2.45,0,0,0,92,68.13v-1H89.1V74h3.13V69.9c0-.68.28-1,.85-1a.75.75,0,0,1,.48.14.89.89,0,0,1,.2.68V74h3.12V69.62a3.51,3.51,0,0,0-.25-1.57,1.85,1.85,0,0,0-.87-.74A3.28,3.28,0,0,0,94.25,67Zm14.5,0a4.77,4.77,0,0,0-3.17,1,3.16,3.16,0,0,0-1.21,2.55A3.26,3.26,0,0,0,105.53,73a4.55,4.55,0,0,0,3.15,1,4.85,4.85,0,0,0,3.22-1,3.28,3.28,0,0,0,.46-4.62,2.86,2.86,0,0,0-.46-.46A4.74,4.74,0,0,0,108.75,67Zm0,1.68a.83.83,0,0,1,.81.42,3.12,3.12,0,0,1,.23,1.38,5.68,5.68,0,0,1-.16,1.36.83.83,0,0,1-.89.65.87.87,0,0,1-.77-.38,4.54,4.54,0,0,1,0-3,.84.84,0,0,1,.78-.41Z" transform="translate(0 -0.16)" fill="#fff" stroke="#002d3f" stroke-miterlimit="2.62" stroke-width="2.76"/><path d="M146.9,64.9h-3l-.05,2.22h-1.19V68.9h1.19v3a2,2,0,0,0,.68,1.69,3.44,3.44,0,0,0,2.12.53,11.09,11.09,0,0,0,1.82-.16V72a4.42,4.42,0,0,1-.89.11,1.27,1.27,0,0,1-.47-.09c-.15-.07-.23-.28-.23-.62V68.9h1.59V67.16H146.9ZM125.43,67a2.5,2.5,0,0,0-2.19,1.06v-.92h-2.81V74h3V69.72c0-.55.26-.82.76-.82s.74.27.74.82V74h3V70c0-.73.29-1.09.88-1.09a.64.64,0,0,1,.51.17.92.92,0,0,1,.15.6V74h3V69.34A2.59,2.59,0,0,0,132.2,68a1.76,1.76,0,0,0-.84-.71A3,3,0,0,0,130,67a2.74,2.74,0,0,0-2.38,1.06A2.5,2.5,0,0,0,125.43,67Zm12.68,0q-3.54,0-4.16,2.14l2.85.23c.09-.5.49-.74,1.21-.74a1.54,1.54,0,0,1,.7.14.65.65,0,0,1,.24.6v.16a9.49,9.49,0,0,0-4.07.8,2,2,0,0,0-1.15,1.75,1.85,1.85,0,0,0,.7,1.41,3.11,3.11,0,0,0,2.12.62A3,3,0,0,0,139.11,73a4.2,4.2,0,0,0,.11,1h3a3.17,3.17,0,0,1-.24-1.33V69.93a4.41,4.41,0,0,0-.17-1.49,1.68,1.68,0,0,0-.63-.74,3.27,3.27,0,0,0-1.27-.51A9.09,9.09,0,0,0,138.11,67ZM119,67a2,2,0,0,0-2.08,1.54V67.16h-2.6V74h3V70.86c0-1,.52-1.48,1.55-1.48a2.88,2.88,0,0,1,.59.06V67.06Zm20,3.79v.33c0,.58-.11,1-.35,1.13a1.38,1.38,0,0,1-.85.26c-.53,0-.8-.21-.8-.62C137,71.28,137.62,70.91,139,70.79Z" transform="translate(0 -0.16)" fill="#fff" stroke="#002d3f" stroke-miterlimit="2.62" stroke-width="2.76"/><path d="M171.6,74h-3.12V69.7a.89.89,0,0,0-.2-.68.75.75,0,0,0-.48-.14c-.57,0-.85.34-.85,1V74h-3.13V67.16h2.9v1A2.44,2.44,0,0,1,169,67a3.5,3.5,0,0,1,1.46.29,1.85,1.85,0,0,1,.87.74,3.51,3.51,0,0,1,.25,1.57Z" transform="translate(0 -0.16)" fill="#fff" stroke="#002d3f" stroke-miterlimit="2.62" stroke-width="2.76"/><path d="M181.27,64.68a5.51,5.51,0,0,0-3.31.86,2.63,2.63,0,0,0-1.14,2.16,2.31,2.31,0,0,0,.8,1.75,7.61,7.61,0,0,0,3.61,1.21,3.19,3.19,0,0,1,1,.29.5.5,0,0,1,.29.46c0,.38-.41.57-1.24.57a1.87,1.87,0,0,1-2-1.11l-3,.47c.61,1.86,2.21,2.79,4.82,2.79a6.37,6.37,0,0,0,3.46-.86A2.6,2.6,0,0,0,185.88,71a2.31,2.31,0,0,0-.54-1.53,3,3,0,0,0-1.35-.92,23.41,23.41,0,0,0-2.73-.62,3.07,3.07,0,0,1-.94-.27.42.42,0,0,1-.24-.39c0-.38.35-.57,1.07-.57a1.69,1.69,0,0,1,1.72.92l2.72-.71q-1.05-2.25-4.32-2.25Zm25.78.22h-3v2.22h-1.19V68.9H204v3a2,2,0,0,0,.67,1.69,3.47,3.47,0,0,0,2.13.53,11.09,11.09,0,0,0,1.82-.16V72a4.61,4.61,0,0,1-.9.11,1.27,1.27,0,0,1-.47-.09c-.15-.07-.22-.28-.22-.62V68.9h1.59V67.16H207ZM198.47,67a4.9,4.9,0,0,0-2.67.65,1.89,1.89,0,0,0-.8,2.55,1.92,1.92,0,0,0,.39.51,5.82,5.82,0,0,0,3,.9,5.87,5.87,0,0,1,1.11.2c.16.07.23.16.23.27,0,.27-.4.41-1.21.41-1,0-1.54-.25-1.68-.74l-2.47.29q.78,2.07,4,2.07a5.89,5.89,0,0,0,3-.66,2,2,0,0,0,1.09-1.78,1.76,1.76,0,0,0-.49-1.25,2.55,2.55,0,0,0-1.19-.71,18.52,18.52,0,0,0-2.66-.38c-.5,0-.75-.19-.75-.41s.08-.15.24-.23a2,2,0,0,1,.76-.12,1.41,1.41,0,0,1,1.38.61l2.37-.39C201.64,67.62,200.4,67,198.47,67Zm15.14,0a4.57,4.57,0,0,0-3.16,1,3.35,3.35,0,0,0-1.19,2.59,3.12,3.12,0,0,0,1.2,2.48,4.9,4.9,0,0,0,3.22,1,5.11,5.11,0,0,0,2.86-.7,3,3,0,0,0,1.33-1.72L215,71.54a1.05,1.05,0,0,1-1.2.84,1.19,1.19,0,0,1-1-.31,1.55,1.55,0,0,1-.27-1h5.34v-.39A3.39,3.39,0,0,0,216.69,68,4.64,4.64,0,0,0,213.61,67Zm10.47,0a2.48,2.48,0,0,0-2.18,1.06v-.92h-2.81V74h3V69.72c0-.55.25-.82.76-.82s.74.27.74.82V74h3V70c0-.73.29-1.09.88-1.09a.64.64,0,0,1,.51.17.92.92,0,0,1,.15.6V74h3V69.34A2.48,2.48,0,0,0,230.9,68a1.76,1.76,0,0,0-.84-.71,3,3,0,0,0-1.35-.28,2.74,2.74,0,0,0-2.38,1.06A2.5,2.5,0,0,0,224.08,67Zm-37.94.14L189,73.49a1.34,1.34,0,0,1,.14.47q0,.51-1.35.51a7.08,7.08,0,0,1-1.13-.09v1.91l1.57.06a3.59,3.59,0,0,0,2.07-.48,2.94,2.94,0,0,0,1-1.31l3.13-7.4h-2.29l-1.37,3.64-1.32-3.64Zm27.5,1.44a1.21,1.21,0,0,1,.78.24,1.12,1.12,0,0,1,.33.93h-2.23a1,1,0,0,1,.83-1.15h.29Z" transform="translate(0 -0.16)" fill="#fff" stroke="#002d3f" stroke-miterlimit="2.62" stroke-width="2.76"/><path d="M49.24,51.15v2.12h3.12V51.15Zm-26.32.29V60.6h2.66V56.16a5.48,5.48,0,0,0-.25-1.5,15,15,0,0,0,1.13,1.89l2.93,4.05h2.68V51.44H29.39v2.71a12.07,12.07,0,0,0,.25,2.4,11.21,11.21,0,0,0-1.13-1.76L26,51.44Zm23.69.07h-3v2.22H42.4v1.74h1.19v3a2,2,0,0,0,.67,1.69,3.44,3.44,0,0,0,2.12.53,10.09,10.09,0,0,0,1.82-.16v-1.9a4.42,4.42,0,0,1-.89.11,1.27,1.27,0,0,1-.47-.09c-.15-.07-.23-.28-.23-.62V55.51H48.2V53.77H46.61Zm-8.78,2.12c-2.37,0-3.76.72-4.17,2.14l2.86.23c.08-.49.48-.74,1.2-.74a1.54,1.54,0,0,1,.7.14.65.65,0,0,1,.24.6v.16a9.79,9.79,0,0,0-4.07.8,2,2,0,0,0-1.14,1.75,1.84,1.84,0,0,0,.69,1.41,3.11,3.11,0,0,0,2.12.62,3,3,0,0,0,2.56-1.09,4.2,4.2,0,0,0,.11,1h3a3.34,3.34,0,0,1-.24-1.33V56.55a4.47,4.47,0,0,0-.17-1.5,1.72,1.72,0,0,0-.62-.74,3.31,3.31,0,0,0-1.28-.51A9,9,0,0,0,37.83,53.63Zm20.14,0a4.8,4.8,0,0,0-3.18,1,3.18,3.18,0,0,0-1.21,2.56,3.3,3.3,0,0,0,1.17,2.48,4.5,4.5,0,0,0,3.15,1,4.75,4.75,0,0,0,3.21-1,3.22,3.22,0,0,0,1.22-2.56,3.17,3.17,0,0,0-1.2-2.52,4.72,4.72,0,0,0-3.13-1Zm10.76,0a2.46,2.46,0,0,0-2.3,1.11v-1h-2.9V60.6h3.13V56.5c0-.68.29-1,.85-1a.71.71,0,0,1,.48.15c.13.09.2.32.2.67v4.3h3.13V56.23a3.38,3.38,0,0,0-.26-1.57,1.93,1.93,0,0,0-.86-.74A3.51,3.51,0,0,0,68.73,53.63Zm8.19,0c-2.37,0-3.75.72-4.16,2.14l2.85.23c.08-.49.49-.74,1.21-.74a1.54,1.54,0,0,1,.7.14.65.65,0,0,1,.24.6v.16a9.87,9.87,0,0,0-4.08.8,2,2,0,0,0-1.14,1.75,1.85,1.85,0,0,0,.7,1.41,3.71,3.71,0,0,0,4.68-.47,3.74,3.74,0,0,0,.11,1h3a3.34,3.34,0,0,1-.24-1.33V56.55a4.46,4.46,0,0,0-.16-1.5,1.88,1.88,0,0,0-.63-.74,3.31,3.31,0,0,0-1.28-.51A9.07,9.07,0,0,0,76.92,53.63Zm-27.68.14V60.6h3.12V53.77ZM58,55.31a.86.86,0,0,1,.82.42A3.28,3.28,0,0,1,59,57.12a5.55,5.55,0,0,1-.17,1.35.8.8,0,0,1-.88.65.89.89,0,0,1-.78-.38,3.11,3.11,0,0,1-.26-1.56,3.05,3.05,0,0,1,.25-1.43A.85.85,0,0,1,58,55.31Zm-19.29,2.1v.33c0,.58-.11.95-.35,1.12a1.38,1.38,0,0,1-.85.26c-.53,0-.79-.21-.79-.62,0-.61.61-1,1.94-1.09Zm39.1,0v.33c0,.58-.12.95-.35,1.12a1.39,1.39,0,0,1-.86.26c-.53,0-.79-.21-.79-.62C75.81,57.89,76.43,57.5,77.81,57.41Z" transform="translate(0 -0.16)" fill="#fff"/><path d="M85.45,51.44V60.6H82.37V51.44Z" transform="translate(0 -0.16)" fill="#fff"/><path d="M102.86,51.44V60.6h-3V54.05l-2,6.55H95.75l-2.06-6.55V60.6H91.23V51.44h4.29l1.55,4.86,1.48-4.86Z" transform="translate(0 -0.16)" fill="#fff"/><path d="M117.49,51.51h-3v2.22H113.3v1.74h1.19v3a2,2,0,0,0,.67,1.69,3.47,3.47,0,0,0,2.13.53,10.09,10.09,0,0,0,1.82-.16v-1.9a4.61,4.61,0,0,1-.9.11,1.27,1.27,0,0,1-.47-.09c-.15-.07-.23-.28-.23-.62V55.51h1.6V53.77h-1.6Zm-8.89,2.12a4.8,4.8,0,0,0-3.18,1,3.23,3.23,0,0,0-1.21,2.56,3.3,3.3,0,0,0,1.17,2.48,4.5,4.5,0,0,0,3.15,1,4.75,4.75,0,0,0,3.21-1A3.21,3.21,0,0,0,113,57.16a3.17,3.17,0,0,0-1.2-2.52A4.8,4.8,0,0,0,108.6,53.63Zm15.49,0a4.8,4.8,0,0,0-3.18,1,3.18,3.18,0,0,0-1.21,2.56,3.29,3.29,0,0,0,1.16,2.48A4.55,4.55,0,0,0,124,60.74a4.82,4.82,0,0,0,3.21-1,3.28,3.28,0,0,0,.46-4.62,2.86,2.86,0,0,0-.46-.46A4.75,4.75,0,0,0,124.09,53.63Zm-15.51,1.68a.84.84,0,0,1,.82.42,3.16,3.16,0,0,1,.23,1.39,5.55,5.55,0,0,1-.17,1.35.8.8,0,0,1-.88.65.89.89,0,0,1-.78-.38,3.11,3.11,0,0,1-.26-1.56,3.05,3.05,0,0,1,.25-1.43A.84.84,0,0,1,108.58,55.31Zm15.49,0a.86.86,0,0,1,.82.42,3.15,3.15,0,0,1,.22,1.39,5.6,5.6,0,0,1-.16,1.35.83.83,0,0,1-.89.65.87.87,0,0,1-.77-.38,4.54,4.54,0,0,1,0-3A.84.84,0,0,1,124.07,55.31Z" transform="translate(0 -0.16)" fill="#fff"/><path d="M132.64,60.6h-3V53.77h2.6v1.41a2,2,0,0,1,2.08-1.53h.45V56a2.25,2.25,0,0,0-.58-.07,1.36,1.36,0,0,0-1.55,1.14,1.29,1.29,0,0,0,0,.34Z" transform="translate(0 -0.16)" fill="#fff"/><path d="M171.56,51.15v2.12h-3.13V51.15Zm0,2.62V60.6h-3.13V53.77Z" transform="translate(0 -0.16)" fill="#fff"/><path d="M207.3,51.15v2.12h3.13V51.15Zm8.1.36h-3l-.05,2.22h-1.19v1.74h1.19v3a2,2,0,0,0,.68,1.69,3.44,3.44,0,0,0,2.12.53,10.09,10.09,0,0,0,1.82-.16v-1.9a4.42,4.42,0,0,1-.89.11,1.27,1.27,0,0,1-.47-.09c-.15-.07-.23-.28-.23-.62V55.51H217V53.77h-1.6Zm-8.1,2.26V60.6h3.13V53.77Z" transform="translate(0 -0.16)" fill="#fff"/><path d="M149.14,51.44l-3.32,9.16h-3.35L139,51.44h3.46l1.69,5c.11.3.21.59.3.88l2-5.87Z" transform="translate(0 -0.16)" fill="#fff"/><path d="M154.78,58.15l2.91.17A3,3,0,0,1,156.37,60a5.17,5.17,0,0,1-2.87.7,4.89,4.89,0,0,1-3.21-1,3.08,3.08,0,0,1-1.2-2.48,3.33,3.33,0,0,1,1.18-2.58,4.54,4.54,0,0,1,3.16-1.06,4.6,4.6,0,0,1,3.09,1,3.34,3.34,0,0,1,1.18,2.7v.39h-5.33a1.54,1.54,0,0,0,.26,1,1.19,1.19,0,0,0,1,.31A1.06,1.06,0,0,0,154.78,58.15Zm-.21-1.77a1.12,1.12,0,0,0-.33-.93,1.21,1.21,0,0,0-.78-.24q-1.11,0-1.11,1.17Z" transform="translate(0 -0.16)" fill="#fff"/><path d="M166.76,60.6h-3.12V56.49a1.46,1.46,0,0,0-.15-.77.61.61,0,0,0-.55-.21,1,1,0,0,0-.57.16.57.57,0,0,0-.27.34,4.45,4.45,0,0,0,0,.73V60.6H159V51.44h3.13v3.14a2.82,2.82,0,0,1,2.21-.95,3.15,3.15,0,0,1,1.21.21,2.13,2.13,0,0,1,.8.52,1.77,1.77,0,0,1,.38.63,4.18,4.18,0,0,1,.1,1.17Z" transform="translate(0 -0.16)" fill="#fff"/><path d="M181.6,51.44V60.6h3.08V51.44Zm-4.75,2.19a4.29,4.29,0,0,0-2.95,1,3.32,3.32,0,0,0-1.13,2.59,3.2,3.2,0,0,0,1.14,2.52,4.36,4.36,0,0,0,3,1,4.18,4.18,0,0,0,2.61-.75,3,3,0,0,0,1.18-2l-2.7-.14c-.1.68-.44,1-1,1a.84.84,0,0,1-.8-.4,2.52,2.52,0,0,1-.23-1.24,3,3,0,0,1,.23-1.37.78.78,0,0,1,.73-.39c.53,0,.87.36,1,1.08l2.74-.19a2.83,2.83,0,0,0-1.16-2A4.19,4.19,0,0,0,176.85,53.63Zm13.4,0a4.54,4.54,0,0,0-3.16,1.06,3.33,3.33,0,0,0-1.18,2.58,3.08,3.08,0,0,0,1.2,2.48,4.89,4.89,0,0,0,3.21,1,5.17,5.17,0,0,0,2.87-.7,3,3,0,0,0,1.32-1.72l-2.91-.17a1.05,1.05,0,0,1-1.2.84,1.19,1.19,0,0,1-1-.31,1.69,1.69,0,0,1-.26-1h5.33V57.3a3.34,3.34,0,0,0-1.18-2.7,4.6,4.6,0,0,0-3.09-1Zm0,1.58a1.25,1.25,0,0,1,.79.24,1.15,1.15,0,0,1,.32.93h-2.22a1,1,0,0,1,1.14-1.17Z" transform="translate(0 -0.16)" fill="#fff"/><path d="M204.26,53.63v7h-3.12v-7h-2.21V51.44h7.54v2.19Z" transform="translate(0 -0.16)" fill="#fff"/><path d="M221.11,51.44V60.6H218V51.44Z" transform="translate(0 -0.16)" fill="#fff"/><path d="M228,58.15l2.91.17A3,3,0,0,1,229.62,60a5.17,5.17,0,0,1-2.87.7,4.89,4.89,0,0,1-3.21-1,3.08,3.08,0,0,1-1.2-2.48,3.33,3.33,0,0,1,1.18-2.58,4.54,4.54,0,0,1,3.16-1.06,4.6,4.6,0,0,1,3.09,1,3.34,3.34,0,0,1,1.18,2.7v.39h-5.33a1.54,1.54,0,0,0,.26,1,1.19,1.19,0,0,0,1,.31,1.05,1.05,0,0,0,1.2-.84Zm-.21-1.77a1.12,1.12,0,0,0-.33-.93,1.21,1.21,0,0,0-.78-.24q-1.11,0-1.11,1.17Z" transform="translate(0 -0.16)" fill="#fff"/><path d="M87.3,64.83V74H84V64.83Z" transform="translate(0 -0.16)" fill="#fff"/><path d="M149.53,64.54v2.12h3.12V64.54ZM158.26,67a4.8,4.8,0,0,0-3.18,1,3.16,3.16,0,0,0-1.21,2.55A3.31,3.31,0,0,0,155,73.08a4.53,4.53,0,0,0,3.16,1,4.82,4.82,0,0,0,3.21-1,3.18,3.18,0,0,0,1.21-2.56A3.1,3.1,0,0,0,161.42,68,4.74,4.74,0,0,0,158.26,67Zm-8.73.14V74h3.12V67.16Zm8.71,1.54a.86.86,0,0,1,.82.42,3.11,3.11,0,0,1,.22,1.38,5.68,5.68,0,0,1-.16,1.36.83.83,0,0,1-.89.65.87.87,0,0,1-.77-.38,4.54,4.54,0,0,1,0-3A.86.86,0,0,1,158.24,68.68Z" transform="translate(0 -0.16)" fill="#fff"/><path d="M101.91,64.36a4.85,4.85,0,0,0-1.56.2,2.2,2.2,0,0,0-.92.57,1.62,1.62,0,0,0-.43.78,6.52,6.52,0,0,0-.09,1.25H97.72V68.9h1.19V74h3V68.9h2V67.16h-2v-.24c0-.33.11-.54.31-.62a1.7,1.7,0,0,1,.67-.13,10.56,10.56,0,0,1,1.12.09V64.5A14.82,14.82,0,0,0,101.91,64.36ZM94.25,67A2.45,2.45,0,0,0,92,68.13v-1H89.1V74h3.13V69.9c0-.68.28-1,.85-1a.75.75,0,0,1,.48.14.89.89,0,0,1,.2.68V74h3.12V69.62a3.51,3.51,0,0,0-.25-1.57,1.85,1.85,0,0,0-.87-.74A3.28,3.28,0,0,0,94.25,67Zm14.5,0a4.77,4.77,0,0,0-3.17,1,3.16,3.16,0,0,0-1.21,2.55A3.26,3.26,0,0,0,105.53,73a4.55,4.55,0,0,0,3.15,1,4.85,4.85,0,0,0,3.22-1,3.28,3.28,0,0,0,.46-4.62,2.86,2.86,0,0,0-.46-.46A4.74,4.74,0,0,0,108.75,67Zm0,1.68a.83.83,0,0,1,.81.42,3.12,3.12,0,0,1,.23,1.38,5.68,5.68,0,0,1-.16,1.36.83.83,0,0,1-.89.65.87.87,0,0,1-.77-.38,4.54,4.54,0,0,1,0-3,.84.84,0,0,1,.78-.41Z" transform="translate(0 -0.16)" fill="#fff"/><path d="M146.9,64.9h-3l-.05,2.22h-1.19V68.9h1.19v3a2,2,0,0,0,.68,1.69,3.44,3.44,0,0,0,2.12.53,11.09,11.09,0,0,0,1.82-.16V72a4.42,4.42,0,0,1-.89.11,1.27,1.27,0,0,1-.47-.09c-.15-.07-.23-.28-.23-.62V68.9h1.59V67.16H146.9ZM125.43,67a2.5,2.5,0,0,0-2.19,1.06v-.92h-2.81V74h3V69.72c0-.55.26-.82.76-.82s.74.27.74.82V74h3V70c0-.73.29-1.09.88-1.09a.64.64,0,0,1,.51.17.92.92,0,0,1,.15.6V74h3V69.34A2.59,2.59,0,0,0,132.2,68a1.76,1.76,0,0,0-.84-.71A3,3,0,0,0,130,67a2.74,2.74,0,0,0-2.38,1.06A2.5,2.5,0,0,0,125.43,67Zm12.68,0q-3.54,0-4.16,2.14l2.85.23c.09-.5.49-.74,1.21-.74a1.54,1.54,0,0,1,.7.14.65.65,0,0,1,.24.6v.16a9.49,9.49,0,0,0-4.07.8,2,2,0,0,0-1.15,1.75,1.85,1.85,0,0,0,.7,1.41,3.11,3.11,0,0,0,2.12.62A3,3,0,0,0,139.11,73a4.2,4.2,0,0,0,.11,1h3a3.17,3.17,0,0,1-.24-1.33V69.93a4.41,4.41,0,0,0-.17-1.49,1.68,1.68,0,0,0-.63-.74,3.27,3.27,0,0,0-1.27-.51A9.09,9.09,0,0,0,138.11,67ZM119,67a2,2,0,0,0-2.08,1.54V67.16h-2.6V74h3V70.86c0-1,.52-1.48,1.55-1.48a2.88,2.88,0,0,1,.59.06V67.06Zm20,3.79v.33c0,.58-.11,1-.35,1.13a1.38,1.38,0,0,1-.85.26c-.53,0-.8-.21-.8-.62C137,71.28,137.62,70.91,139,70.79Z" transform="translate(0 -0.16)" fill="#fff"/><path d="M171.6,74h-3.12V69.7a.89.89,0,0,0-.2-.68.75.75,0,0,0-.48-.14c-.57,0-.85.34-.85,1V74h-3.13V67.16h2.9v1A2.44,2.44,0,0,1,169,67a3.5,3.5,0,0,1,1.46.29,1.85,1.85,0,0,1,.87.74,3.51,3.51,0,0,1,.25,1.57Z" transform="translate(0 -0.16)" fill="#fff"/><path d="M181.27,64.68a5.51,5.51,0,0,0-3.31.86,2.63,2.63,0,0,0-1.14,2.16,2.31,2.31,0,0,0,.8,1.75,7.61,7.61,0,0,0,3.61,1.21,3.19,3.19,0,0,1,1,.29.5.5,0,0,1,.29.46c0,.38-.41.57-1.24.57a1.87,1.87,0,0,1-2-1.11l-3,.47c.61,1.86,2.21,2.79,4.82,2.79a6.37,6.37,0,0,0,3.46-.86A2.6,2.6,0,0,0,185.88,71a2.31,2.31,0,0,0-.54-1.53,3,3,0,0,0-1.35-.92,23.41,23.41,0,0,0-2.73-.62,3.07,3.07,0,0,1-.94-.27.42.42,0,0,1-.24-.39c0-.38.35-.57,1.07-.57a1.69,1.69,0,0,1,1.72.92l2.72-.71q-1.05-2.25-4.32-2.25Zm25.78.22h-3v2.22h-1.19V68.9H204v3a2,2,0,0,0,.67,1.69,3.47,3.47,0,0,0,2.13.53,11.09,11.09,0,0,0,1.82-.16V72a4.61,4.61,0,0,1-.9.11,1.27,1.27,0,0,1-.47-.09c-.15-.07-.22-.28-.22-.62V68.9h1.59V67.16H207ZM198.47,67a4.9,4.9,0,0,0-2.67.65,1.89,1.89,0,0,0-.8,2.55,1.92,1.92,0,0,0,.39.51,5.82,5.82,0,0,0,3,.9,5.87,5.87,0,0,1,1.11.2c.16.07.23.16.23.27,0,.27-.4.41-1.21.41-1,0-1.54-.25-1.68-.74l-2.47.29q.78,2.07,4,2.07a5.89,5.89,0,0,0,3-.66,2,2,0,0,0,1.09-1.78,1.76,1.76,0,0,0-.49-1.25,2.55,2.55,0,0,0-1.19-.71,18.52,18.52,0,0,0-2.66-.38c-.5,0-.75-.19-.75-.41s.08-.15.24-.23a2,2,0,0,1,.76-.12,1.41,1.41,0,0,1,1.38.61l2.37-.39C201.64,67.62,200.4,67,198.47,67Zm15.14,0a4.57,4.57,0,0,0-3.16,1,3.35,3.35,0,0,0-1.19,2.59,3.12,3.12,0,0,0,1.2,2.48,4.9,4.9,0,0,0,3.22,1,5.11,5.11,0,0,0,2.86-.7,3,3,0,0,0,1.33-1.72L215,71.54a1.05,1.05,0,0,1-1.2.84,1.19,1.19,0,0,1-1-.31,1.55,1.55,0,0,1-.27-1h5.34v-.39A3.39,3.39,0,0,0,216.69,68,4.64,4.64,0,0,0,213.61,67Zm10.47,0a2.48,2.48,0,0,0-2.18,1.06v-.92h-2.81V74h3V69.72c0-.55.25-.82.76-.82s.74.27.74.82V74h3V70c0-.73.29-1.09.88-1.09a.64.64,0,0,1,.51.17.92.92,0,0,1,.15.6V74h3V69.34A2.48,2.48,0,0,0,230.9,68a1.76,1.76,0,0,0-.84-.71,3,3,0,0,0-1.35-.28,2.74,2.74,0,0,0-2.38,1.06A2.5,2.5,0,0,0,224.08,67Zm-37.94.14L189,73.49a1.34,1.34,0,0,1,.14.47q0,.51-1.35.51a7.08,7.08,0,0,1-1.13-.09v1.91l1.57.06a3.59,3.59,0,0,0,2.07-.48,2.94,2.94,0,0,0,1-1.31l3.13-7.4h-2.29l-1.37,3.64-1.32-3.64Zm27.5,1.44a1.21,1.21,0,0,1,.78.24,1.12,1.12,0,0,1,.33.93h-2.23a1,1,0,0,1,.83-1.15h.29Z" transform="translate(0 -0.16)" fill="#fff"/><path d="M204,12.16a2.34,2.34,0,1,0,2.34,2.34h0A2.33,2.33,0,0,0,204,12.16Zm0,5.16a2.83,2.83,0,1,1,2.83-2.83A2.83,2.83,0,0,1,204,17.32h0" transform="translate(0 -0.16)" fill="#fff"/><path d="M203.47,14.34h.46c.48,0,.79-.22.79-.55s-.33-.53-.81-.53a1.62,1.62,0,0,0-.44,0ZM203,13a6.22,6.22,0,0,1,.86-.06,1.6,1.6,0,0,1,1,.24.64.64,0,0,1,.28.54.79.79,0,0,1-.66.73h0A.74.74,0,0,1,205,15a5.66,5.66,0,0,0,.27.79h-.47a3.29,3.29,0,0,1-.23-.69.64.64,0,0,0-.69-.56h-.43v1.25H203V13" transform="translate(0 -0.16)" fill="#fff"/></svg>